<svg version="1.2" baseProfile="tiny-ps" xmlns="http://www.w3.org/2000/svg" viewBox="0 0 241 282" width="241" height="282">
	<title>tooth_32</title>
	<style>
		tspan { white-space:pre }
		.shp0 { stroke: #000000;stroke-width: 10 } 
	</style>
	<g id="32">
		<path id="path4452" class="shp0" d="M53.18 44.04C69.57 -1.71 109.57 -2.24 136.74 19.68L175.66 68.72L221.47 112.56C228.13 133.09 246.04 131.82 225.16 205.66C212.6 245.6 187.34 263.44 156.36 271.36C116.64 282.76 82.63 275.43 52.02 256.97C31.14 235.47 -1.89 225.32 6.98 176.06C15.83 153.9 16.25 148.72 35.24 106.16C41.22 85.54 47.23 75.38 53.18 44.04L53.18 44.04Z" />
		<path id="path4448" class="shp0" d="M91.26 99.11L75.93 173.29C65.97 209 55.87 194.3 45.76 173.37" />
		<path id="path4450" class="shp0" d="M221.5 127.22C219.93 153.4 222.37 182.16 189.77 188.51C162.05 198.07 127.27 207.64 116.57 217.15C70.68 242.49 66.4 229.22 47.63 229.4" />
		<path id="path4446" class="shp0" d="M142.89 65.36C164.97 97.48 226.18 129.51 156.94 161.87" />
	</g>
</svg>