<svg version="1.2" baseProfile="tiny-ps" xmlns="http://www.w3.org/2000/svg" viewBox="0 0 460 481" width="460" height="481">
	<title>tooth_36</title>
	<style>
		tspan { white-space:pre }
		.shp0 { stroke: #000000;stroke-width: 10 } 
	</style>
	<g id="36">
		<path id="path4400" class="shp0" d="M223.75 6.59C273.35 2.07 290.84 15.18 316.9 23.59C361.6 40.98 375.48 69.68 396.4 95.79L440.63 197.4C468.25 250.84 445.28 298.08 439.3 347.4C421.01 400.49 409.83 405.3 398.09 413.89L328.39 460.63C277.28 484.16 251.52 473.71 219.79 471.26C171.26 465.08 135.78 442.49 95.54 425.89C57.05 406.31 37.85 378.95 22.06 350.22C-3.8 318.58 5.95 276.94 20.89 233.84C44.25 198.73 53.58 163.64 51.65 128.59C49.86 108.48 58.75 88.34 79.94 68.17L110.03 33.61C132.37 19.5 154.5 7.35 174.63 13.61L223.75 6.59Z" />
		<path id="path4402" class="shp0" d="M331.45 315.79C334.49 346.13 330.88 363.24 324.71 375.29C296.08 415.64 267.35 415.2 238.64 425.52C209.15 429.61 181.45 431.01 161.04 421.41L89.41 389.7C47.82 376.79 40.35 347.84 32.32 319.16C21.02 273.43 34.05 257.28 42.45 235.51C56.82 204.28 71.28 173.18 76.65 128.53C76.88 106.4 93.43 84.23 104.07 62.07" />
		<path id="path4404" class="shp0" d="M178.08 16.19C187.32 21.61 205.66 21.31 233.25 15.18C289.15 4.81 301.78 37.91 328.19 57.18C348.14 70 346.51 97.29 346.47 123.51C370.81 168.55 364.32 216.76 367.53 263.97C369.73 288.83 359 293.5 345.19 293.34" />
		<path id="path4406" class="shp0" d="M179.94 67.05C190.2 92.94 196.49 117.34 221.53 148.84C211.35 182.55 196.78 194.63 182.03 205.84C178.35 215.35 172.4 210.7 175.28 261.03C171.67 309.31 140.2 325.93 122.08 357.72" />
		<path id="path4408" class="shp0" d="M285.68 282.29C249.42 264.63 213.16 241.23 176.97 249.82" />
		<path id="path4410" class="shp0" d="M86.28 181.95C112.89 223 145.23 220.25 176.05 229.13" />
		<path id="path4412" class="shp0" d="M139.58 125.78C160.98 149.89 182.2 174.06 181.16 204.98" />
		<path id="path4414" class="shp0" d="M327.46 107.18C302.86 136.26 269.18 152.7 221.54 149.7" />
	</g>
</svg>