<svg version="1.2" baseProfile="tiny-ps" xmlns="http://www.w3.org/2000/svg" viewBox="0 0 273 295" width="273" height="295">
	<title>tooth_43</title>
	<style>
		tspan { white-space:pre }
		.shp0 { stroke: #000000;stroke-width: 10 } 
	</style>
	<g id="43">
		<path id="path3881" class="shp0" d="M111.41 9.69C169.09 1.59 219.58 1.32 229.42 45.35L258.5 131.63C279.41 197.39 257.46 184.08 254 204.89L210.76 255.64C194.24 272.37 176.44 288.19 137.4 289.07C80.16 286.96 22.25 286.05 10.04 203.39L5.12 106.83C16.99 60.69 29.98 15.2 111.41 9.69L111.41 9.69Z" />
		<path id="path3883" class="shp0" d="M236.77 199.68C202.55 260.68 161 230.84 120.36 212.3C68.1 202.45 57.48 140.83 40.51 87.09" />
		<path id="path3885" class="shp0" d="M217.88 170.32C197.22 182.6 175.74 197.01 173.07 162.44C169.33 126.41 184.9 109.8 191.38 84.04" />
		<path id="path3887" class="shp0" d="M76.72 86.33C81.55 64.83 97.38 48.43 132.01 40.78" />
		<path id="path3889" class="shp0" d="M157.83 59.81C147.25 68.43 136.3 75.56 130.13 101.98C118.26 136.74 106.45 145.86 94.7 134.65" />
		<g id="Folder 1">
		</g>
	</g>
</svg>