<svg version="1.2" baseProfile="tiny-ps" xmlns="http://www.w3.org/2000/svg" viewBox="0 0 446 462" width="446" height="462">
	<title>tooth_16</title>
	<style>
		tspan { white-space:pre }
		.shp0 { stroke: #000000;stroke-width: 10 } 
		.shp1 { stroke: #000000;stroke-linecap:round;stroke-width: 10 } 
	</style>
	<g id="top_left">
		<g id="16">
			<path id="path5187" class="shp0" d="M71.23 51.86C170.26 -34.08 243.26 15.56 316.27 65.18C335.99 89.65 355.27 114.11 382.28 138.59C464.96 218.06 449.41 271.99 401.53 317.52C371.68 350.63 343.1 383.11 328.05 408.88C310.8 426.64 294.94 440.26 281.47 446.78C217.73 475.4 193.39 435.48 157.61 415.47C29.05 347.71 -16.99 253.33 16.09 133.41C19.73 87.18 41.48 64.34 71.23 51.86Z" />
			<path id="path5189" class="shp0" d="M86.45 156.13C65.65 59.71 115.85 70.38 143.08 46.42C190.39 35.04 230.02 7.34 309.23 63.75C368.22 145.84 350.59 191.93 358.04 249.8C361.68 305.05 345.09 338.64 322.56 352.52C316.95 382.33 318.28 410.85 268.82 436.89C226.73 474.42 197.15 442.14 166.05 418.31C119.22 405.72 111.7 374.96 112.75 332.26C17.46 290.81 70.75 212.55 86.45 156.13L86.45 156.13Z" />
			<path id="path5191" class="shp1" d="M284.52 355.24L250.8 325.57C232.96 327.09 215.12 326.9 197.32 309.94C202.21 275.58 196.32 227.66 214.48 209.99C232.05 177.17 250.11 144.35 245.73 111.48C248.58 79.41 261.51 77.85 271.2 66.47" />
			<path id="path5193" class="shp1" d="M217.31 204.36C198.1 192.05 178.85 193.29 159.59 195.76C125.82 197.05 116.8 181.94 104.73 168.85" />
			<path id="path5195" class="shp1" d="M317.38 180.68C280.48 187.02 225.93 184.49 215.91 204.36" />
			<path id="path5197" class="shp1" d="M125.45 325.25C163.02 342.25 178.94 324.4 198.72 312.76" />
			<path id="path5199" class="shp1" d="M156.3 377.44L173.34 325.37" />
		</g>
	</g>
</svg>