<svg version="1.2" baseProfile="tiny-ps" xmlns="http://www.w3.org/2000/svg" viewBox="0 0 368 328" width="368" height="328">
	<title>tooth_21</title>
	<style>
		tspan { white-space:pre }
		.shp0 { stroke: #000000;stroke-linecap:round;stroke-width: 10 } 
	</style>
	<g id="top_right">
		<g id="21">
			<path id="path4364" class="shp0" d="M354.6 155.22C353.95 161.23 318.87 223.09 310.02 251.03C298.06 281.2 279.02 308.47 228.31 322.8C186.91 317.71 144.92 316.62 110.06 267.07L24.38 137.12L8.75 95.78C-2.53 65.93 21.9 38.49 44.78 26.72L106.8 10.18C143.03 7.86 167.08 -2.76 237.86 18.46L304.28 32.94C328.44 43.59 360.71 39.42 361.33 93.14C360.06 113.67 368.1 132.62 354.6 155.22L354.6 155.22Z" />
			<path id="path4366" class="shp0" d="M73.63 180.96C68.39 167.17 60.66 160.5 57.12 132.73C53.59 104.95 69.58 78.52 87.99 68.85C106.41 59.18 171.65 26.96 284.55 70.92C315.47 82.34 297.96 107.96 306.2 107.94L291.01 234.7" />
		</g>
	</g>
</svg>