<svg version="1.2" baseProfile="tiny-ps" xmlns="http://www.w3.org/2000/svg" viewBox="0 0 461 401" width="461" height="401">
	<title>tooth_28</title>
	<style>
		tspan { white-space:pre }
		.shp0 { stroke: #000000;stroke-linejoin:round;stroke-width: 10 } 
		.shp1 { stroke: #000000;stroke-width: 10 } 
		.shp2 { stroke: #000000;stroke-linecap:round;stroke-width: 10 } 
		.shp3 { stroke: #000000;stroke-linecap:round;stroke-linejoin:round;stroke-width: 10 } 
	</style>
	<g id="top_right">
		<g id="28">
			<path id="path4278" class="shp0" d="M236.6 21.91C300.62 6.75 342.65 -3.22 389.52 15.99C436.4 35.2 445.97 77.24 453.5 110.31C462 182.64 447.65 229.41 426.22 268.24C419.24 306.1 415.78 344.54 343.15 371.63C279.36 407.99 215.44 395.28 151.52 384.69C97.23 374.98 62.52 353.46 45.72 321.12L19.17 265.55C9.82 231.71 -2.6 199.18 13.36 154.42C10.73 125.05 42.53 98.05 92.37 72.29C127.28 40.84 179.12 27.16 236.6 21.91L236.6 21.91Z" />
			<path id="path4280" class="shp1" d="M407.65 80.97C461.02 156.7 424.45 190.07 402.41 230.28C408.41 298.44 406.61 350.84 360.45 344.47C292.4 392.96 242.77 366.94 188.66 359.01C180.9 346.69 180.41 330.72 158.99 325.28C158.99 325.28 111.34 223.06 105.16 207.11C98.99 191.16 94.01 161.6 126.09 129.59C126.09 129.59 175.72 77.73 207.6 63.18C222.77 56.26 240.63 58.35 256.88 54.6C290.18 46.92 355.39 26.17 355.39 26.17C386.64 19.27 406.07 35.45 407.65 80.97L407.65 80.97Z" />
			<path id="path4282" class="shp2" d="M188.47 287.18C186.43 285.83 222.35 262.95 247.54 253.22C260.42 248.24 268.12 232.77 271.39 219.35C278.13 191.74 251.39 156.72 259.9 134.87C268.42 113.03 286.32 112.05 302.08 105.19C312.63 100.59 318.9 104.42 335.86 98.06" />
			<path id="path4284" class="shp3" d="M209.13 109.66C231.58 116.26 260.1 121.85 261.3 132.05" />
			<path id="path4286" class="shp2" d="M333.39 227.64C324.31 223.11 312.62 217.65 298.16 222.1C283.7 226.55 276.15 227.94 271.38 215.13" />
			<path id="path4288" class="shp2" d="M210.83 219.51C231.97 218.64 255.09 231.33 272.77 206.67" />
			<path id="path4458" class="shp2" d="M258.81 92.35C253.71 104.96 250.99 117.08 259.96 126.83" />
		</g>
	</g>
</svg>