<svg version="1.2" baseProfile="tiny-ps" xmlns="http://www.w3.org/2000/svg" viewBox="0 0 273 295" width="273" height="295">
	<title>tooth_33</title>
	<style>
		tspan { white-space:pre }
		.shp0 { stroke: #000000;stroke-width: 10 } 
	</style>
	<g id="33">
		<path id="path4436" class="shp0" d="M267.87 107.3L262.95 203.87C250.74 286.52 192.82 287.43 135.59 289.54C96.55 288.67 78.75 272.84 62.23 256.12L18.99 205.37C15.53 184.56 -6.42 197.87 14.49 132.1L43.57 45.82C53.41 1.79 103.9 2.06 161.58 10.16C243.01 15.67 256 61.16 267.87 107.3Z" />
		<path id="path4438" class="shp0" d="M232.47 87.57C215.51 141.3 204.89 202.92 152.63 212.78C111.99 231.31 70.44 261.16 36.22 200.15" />
		<path id="path4440" class="shp0" d="M81.6 84.51C88.08 110.27 103.66 126.88 99.91 162.91C97.24 197.49 75.76 183.07 55.11 170.79" />
		<path id="path4442" class="shp0" d="M196.26 86.8C191.43 65.3 175.61 48.91 140.97 41.25" />
		<path id="path4444" class="shp0" d="M178.29 135.12C166.54 146.33 154.73 137.21 142.86 102.46C136.68 76.03 125.74 68.91 115.16 60.29" />
	</g>
</svg>