<svg version="1.2" baseProfile="tiny-ps" xmlns="http://www.w3.org/2000/svg" viewBox="0 0 454 439" width="454" height="439">
	<title>tooth_1</title>
	<style>
		tspan { white-space:pre }
		.shp0 { stroke: #000000;stroke-width: 10 } 
		.shp1 { stroke: #000000;stroke-linecap:round;stroke-width: 10 } 
	</style>
	<g id="top_left">
		<g id="17">
			<path id="path5171" class="shp1" d="M19.92 227.98C-0.24 200.35 2.4 160.14 15.99 113.88C67.87 -4.95 161.08 -30.56 306.27 61.12C351.82 79.5 387.92 114.86 411.67 150.13C435.04 184.83 456.73 201.53 445.18 262.89C418.52 366.26 372.46 447.34 241.92 431.38C190.06 425.07 144.26 438.65 78.66 387.29C53.26 345.26 4.33 348.05 19.92 227.98L19.92 227.98Z" />
			<path id="path5173" class="shp0" d="M79.48 74.61C134.1 -43.47 223.49 50.41 310.32 128.74C328.09 150.09 350.65 163.51 358.02 202.1C384.78 270.15 318.41 308.91 287.19 355.44C255.98 401.97 223.74 425.17 167.34 407.24C35.43 358.62 30.39 294.86 50.91 228.06C9.25 129.18 37.47 123.98 48.44 95.66C58.78 89.95 69.11 87.25 79.48 74.61L79.48 74.61Z" />
			<path id="path5183" class="shp1" d="M202.73 336.91C191.81 331.93 184.64 337.35 188.55 373.49L174.44 386.13" />
			<path id="path5181" class="shp1" d="M191.76 222.79C163.64 236.1 142 230.11 121.35 221.2L66.44 214.01" />
			
			<path id="path5177" class="shp1" d="M202.04 62.26C207.42 74.01 212.64 85.76 221.67 97.52C231.69 105.02 235.93 121.15 238.46 139.82" />
			<path id="path5179" class="shp1" d="M101.98 85.94C120.94 86.75 139.93 87.52 144.19 102.95C168.21 120.72 192.3 138.54 218.7 158.07" />
			<path id="path5175" class="shp1" d="M235 384.88L223.76 374.99C228.67 364.92 221.32 358.91 215.37 352.43C205.5 332.45 189.78 333.68 190.22 276.31C190.71 267.81 191.21 257.08 191.72 241.1C189.42 230.92 180.03 223.07 198.85 205.91C220.69 199 216.92 183.48 217.26 169.34C220.44 146.85 231.19 133.25 256.78 137.05C266.36 137.16 275.93 137.3 289.19 130.09" />
			<path id="path5185" class="shp1" d="M191.7 246.74L221.29 244C234.41 253.05 247.54 258.43 260.67 263.82" />
		</g>
	</g>
</svg>