<svg version="1.2" baseProfile="tiny-ps" xmlns="http://www.w3.org/2000/svg" viewBox="0 0 314 314" width="314" height="314">
	<title>tooth_44</title>
	<style>
		tspan { white-space:pre }
		.shp0 { stroke: #000000;stroke-width: 10 } 
	</style>
	<g id="44">
		<path id="path3870" class="shp0" d="M142.52 5.49L208.89 7.38C247.33 9.56 264.56 35.86 288.08 55.01C296.03 81.48 310.13 104.28 307.69 136.95C306.09 153.8 301.61 167.85 304.11 188.67C303.45 199.87 304.66 211.08 288.5 222.25C267.49 249.51 238.33 272.1 201.25 290.12C168.85 300.34 151.68 322.39 71.93 295.82C21.95 276.97 16.76 225.95 6.72 178.41C3.32 151.08 11.37 117.89 44.93 71.61C73.74 38.81 101.63 3.34 142.52 5.49Z" />
		<path id="path3872" class="shp0" d="M255.72 232.51C238.64 233.37 233.7 247.87 202.25 238.4L162.61 231.4C153.03 228.07 142.5 233.06 135.08 210.64C128.62 199.47 119.7 193.18 111.01 186.44C102.49 180 93.18 181.94 98.17 151.92C97.16 140.36 100.69 135.16 96.51 127.78C88.72 117.45 74 97.81 62.15 81.14" />
		<path id="path3874" class="shp0" d="M246.36 182.48C248.43 193.93 241 206.71 257.48 216.13" />
		<path id="path3877" class="shp0" d="M160.99 195.19L234.49 107.45C249.94 88.79 261.75 84.27 262.9 121.32" />
		<path id="path3879" class="shp0" d="M122.55 59.74C135.17 52.8 145.29 40.83 166.53 51.24C184.46 60 197.89 55.2 211.36 50.49C176.58 72.53 156.32 94.6 149.12 116.71" />
	</g>
</svg>