<svg version="1.2" baseProfile="tiny-ps" xmlns="http://www.w3.org/2000/svg" viewBox="0 0 354 288" width="354" height="288">
	<title>tooth_15</title>
	<style>
		tspan { white-space:pre }
		.shp0 { stroke: #000000;stroke-linecap:round;stroke-width: 10 } 
	</style>
	<g id="top_left">
		<g id="15">
			<path id="path3063" class="shp0" d="M129.19 5.2C180.82 10.49 226.89 4.59 310.7 74.69C353.11 109.52 356.11 156.56 338.52 209.97C317.2 276.73 266.32 260.01 228.48 280.11C208.38 282.96 189.78 282.99 173.55 278.55C162.3 271.48 145.84 269.59 127.09 269.98C74.18 253.32 45.84 212.21 14.67 173.91C-14.93 69.57 31.44 19.14 129.19 5.2L129.19 5.2Z" />
			<path id="path3065" class="shp0" d="M101.84 230.48C105.36 199.48 114.86 204.93 121.66 193.91C128.37 182.79 138.58 175.9 127.42 143.22C123.48 136.75 119.33 131.27 119.07 106.58C119.34 103.37 119.92 99.71 127.58 85.48C128.45 78.87 128.44 73.6 133.83 55.68C129.21 40.2 140.73 26.68 153.12 12.3" />
			<path id="path3067" class="shp0" d="M225.77 236.44C178.29 220 175.28 194.78 183.7 167.31C178.7 123.11 196.69 97.41 209.31 67.38" />
			<path id="path3069" class="shp0" d="M252.92 87.21C233.2 89.6 213.48 90.22 193.74 99.73" />
			<path id="path3071" class="shp0" d="M161.45 58.8C182.97 77.28 189.64 92 196.53 106.78" />
			<path id="path3073" class="shp0" d="M130.01 231.96C139.09 222.7 155.78 208.91 183.64 188.44" />
			<path id="path3890" class="shp0" d="M290.05 78.74C328.37 134.99 311.65 163.83 308.73 188.27C292.23 264.9 242.39 243.65 205.07 269.03" />
		</g>
	</g>
</svg>