<svg version="1.2" baseProfile="tiny-ps" xmlns="http://www.w3.org/2000/svg" viewBox="0 0 314 315" width="314" height="315">
	<title>tooth_34</title>
	<style>
		tspan { white-space:pre }
		.shp0 { stroke: #000000;stroke-width: 10 } 
	</style>
	<g id="34">
		<path id="path4426" class="shp0" d="M269.06 72.08C302.62 118.36 310.67 151.56 307.27 178.88C297.23 226.42 292.03 277.44 242.06 296.29C162.3 322.86 145.14 300.81 112.73 290.6C75.65 272.57 46.5 249.99 25.49 222.72C9.33 211.56 10.53 200.35 9.88 189.14C12.38 168.32 7.9 154.27 6.3 137.43C3.86 104.75 17.96 81.95 25.91 55.48C49.43 36.33 66.65 10.04 105.1 7.86L171.47 5.96C212.36 3.82 240.25 39.28 269.06 72.08L269.06 72.08Z" />
		<path id="path4428" class="shp0" d="M251.84 81.61C239.98 98.29 225.26 117.92 217.48 128.25C213.3 135.63 216.83 140.83 215.82 152.39C220.81 182.41 211.5 180.47 202.98 186.91C194.29 193.65 185.37 199.94 178.9 211.11C171.49 233.53 160.96 228.54 151.37 231.87L111.73 238.87C80.29 248.34 75.34 233.84 58.27 232.98" />
		<path id="path4430" class="shp0" d="M1379.62 2846.96C1377.56 2858.4 1384.98 2871.18 1368.5 2880.61" />
		<path id="path4432" class="shp0" d="M51.08 121.79C52.23 84.74 64.05 89.26 79.5 107.92L153 195.66" />
		<path id="path4434" class="shp0" d="M164.86 117.18C157.66 95.08 137.41 73 102.62 50.97C116.09 55.67 129.53 60.47 147.45 51.71C168.69 41.3 178.82 53.28 191.44 60.22" />
	</g>
</svg>