<svg version="1.2" baseProfile="tiny-ps" xmlns="http://www.w3.org/2000/svg" viewBox="0 0 354 288" width="354" height="288">
	<title>tooth_25</title>
	<style>
		tspan { white-space:pre }
		.shp0 { stroke: #000000;stroke-linecap:round;stroke-width: 10 } 
	</style>
	<g id="top_right">
		<g id="25">
			<path id="path4320" class="shp0" d="M224.79 5.67C322.55 19.62 368.91 70.04 339.32 174.38C308.15 212.68 279.81 253.79 226.89 270.45C208.15 270.07 191.68 271.95 180.44 279.03C164.2 283.47 145.61 283.44 125.51 280.58C87.67 260.48 36.78 277.2 15.47 210.44C-2.13 157.03 0.88 109.99 43.28 75.16C127.1 5.07 173.17 10.96 224.79 5.67L224.79 5.67Z" />
			<path id="path4322" class="shp0" d="M200.87 12.78C213.26 27.15 224.78 40.67 220.15 56.16C225.55 74.08 225.53 79.34 226.41 85.95C234.07 100.18 234.64 103.84 234.92 107.05C234.66 131.74 230.51 137.22 226.56 143.69C215.4 176.37 225.62 183.26 232.33 194.38C239.13 205.4 248.62 199.95 252.14 230.95" />
			<path id="path4324" class="shp0" d="M144.67 67.85C157.29 97.88 175.29 123.58 170.29 167.79C178.71 195.25 175.69 220.47 128.21 236.91" />
			<path id="path4326" class="shp0" d="M101.06 87.68C120.79 90.08 140.51 90.7 160.25 100.21" />
			<path id="path4328" class="shp0" d="M192.54 59.28C171.01 77.75 164.35 92.48 157.45 107.26" />
			<path id="path4330" class="shp0" d="M223.98 232.43C214.9 223.18 198.21 209.38 170.34 188.91" />
			<path id="path4346" class="shp0" d="M148.92 269.5C111.6 244.12 61.76 265.38 45.26 188.74C42.34 164.31 25.61 135.47 63.94 79.21" />
		</g>
	</g>
</svg>