<svg version="1.2" baseProfile="tiny-ps" xmlns="http://www.w3.org/2000/svg" viewBox="0 0 460 481" width="460" height="481">
	<title>tooth_46</title>
	<style>
		tspan { white-space:pre }
		.shp0 { stroke: #000000;stroke-width: 10 } 
	</style>
	<g id="46">
		<path id="path3946" class="shp0" d="M285.36 13.14C305.49 6.88 327.62 19.03 349.96 33.14L380.04 67.7C401.24 87.87 410.12 108.01 408.33 128.12C406.41 163.17 415.74 198.25 439.09 233.37C454.03 276.47 463.79 318.1 437.93 349.75C422.13 378.48 402.94 405.84 364.45 425.42C324.21 442.02 288.73 464.61 240.19 470.78C208.47 473.24 182.71 483.68 131.6 460.15L61.9 413.42C50.16 404.83 38.98 400.02 20.69 346.93C14.71 297.61 -8.27 250.36 19.36 196.93L63.59 95.32C84.5 69.2 98.39 40.51 143.09 23.11C169.14 14.71 186.64 1.6 236.24 6.12L285.36 13.14Z" />
		<path id="path3948" class="shp0" d="M355.92 61.6C366.55 83.76 383.11 105.93 383.33 128.05C388.7 172.71 403.16 203.81 417.54 235.04C425.94 256.81 438.97 272.96 427.66 318.69C419.64 347.37 412.17 376.31 370.58 389.23L298.95 420.94C278.54 430.54 250.84 429.14 221.35 425.04C192.64 414.73 163.9 415.17 135.27 374.82C129.11 362.76 125.49 345.65 128.53 315.32" />
		<path id="path3950" class="shp0" d="M114.8 292.87C100.99 293.03 90.26 288.36 92.46 263.5C95.66 216.29 89.18 168.08 113.52 123.04C113.48 96.81 111.85 69.53 131.8 56.71C158.2 37.44 170.84 4.34 226.73 14.71C254.33 20.83 272.67 21.14 281.9 15.72" />
		<path id="path3952" class="shp0" d="M337.91 357.25C319.79 325.46 288.32 308.84 284.71 260.55C287.59 210.23 281.63 214.88 277.96 205.36C263.21 194.16 248.64 182.08 238.45 148.36C263.49 116.86 269.79 92.47 280.05 66.58" />
		<path id="path3954" class="shp0" d="M174.31 281.82C210.56 264.16 246.83 240.75 283.02 249.34" />
		<path id="path3956" class="shp0" d="M373.71 181.48C347.09 222.53 314.75 219.78 283.93 228.66" />
		<path id="path3958" class="shp0" d="M320.41 125.3C299.01 149.42 277.79 173.59 278.82 204.5" />
		<path id="path3960" class="shp0" d="M132.53 106.71C157.12 135.79 190.8 152.23 238.45 149.23" />
	</g>
</svg>