<svg version="1.2" baseProfile="tiny-ps" xmlns="http://www.w3.org/2000/svg" viewBox="0 0 360 394" width="360" height="394">
	<title>tooth_48</title>
	<style>
		tspan { white-space:pre }
		.shp0 { stroke: #000000;stroke-width: 10 } 
	</style>
	<g id="bottom_left">
		<g id="48">
			<path id="path3912" class="shp0" d="M23.19 281.04C17.84 243.6 -6.09 240.02 13.17 157.74C23.2 99.04 51.98 50.55 116.97 21.81C156.32 16.21 192.18 -11.85 237.66 22.12C250.92 33.71 260.8 39.89 269.5 44.62C287.58 63.44 322.73 64.56 339.95 136.18C339.94 163.48 333.28 174.05 345.73 232.75C349.68 255.37 361.17 269.56 348.11 311.21C334.05 330.47 335.32 350.87 291.93 367.96C280.02 378.95 185.42 389.33 154.81 388.29C124.2 387.24 125.72 397.69 79.04 353.61C60.52 330.23 43.71 320.75 23.19 281.04L23.19 281.04Z" />
			<path id="path3914" class="shp0" d="M222.88 72.95C215.66 84.87 222.16 104.69 200.37 108.23C208.47 121.07 218.3 149.92 228.62 183.31C248.79 213.65 213.74 250.4 224.11 261.74C256.3 295 212.58 311.81 223.1 315.19C210.65 350.61 198.29 353.16 185.92 357.33C176.98 356.2 170.21 352.9 163.53 349.52C151.01 337.9 139.43 338.1 124.86 301.14L109.58 211.44C109.4 195.92 113.91 184.17 125.19 177.86C108.1 173.88 100.39 161.9 99.41 144.17C96.77 114.66 103.76 86.05 126.36 58.9C166.13 22.47 205.18 -0.72 240.17 51.44" />
			<path id="path3916" class="shp0" d="M174.53 101.27L200.37 108.23" />
			<path id="path3920" class="shp0" d="M276.05 176.53C262.36 182.7 250.5 193.2 230.34 184.17" />
			<path id="path3922" class="shp0" d="M192.14 286.66C208.25 284.18 220.3 276 224.98 257.44" />
			<path id="path3924" class="shp0" d="M162.26 177.1C183.64 172.97 207.19 160.3 224.34 172.95" />
			<path id="path3926" class="shp0" d="M310.71 111.97C313.18 135.74 307.14 144.52 318.28 183.54C313.54 200.27 316.29 208.16 327.63 230.98C348.17 275.58 319.79 305.14 317.09 305.95C302.77 316.85 294.69 316.88 272.17 342.04C256.41 346.97 243.54 345.82 229.92 346.24" />
		</g>
	</g>
</svg>