<svg version="1.2" baseProfile="tiny-ps" xmlns="http://www.w3.org/2000/svg" viewBox="0 0 327 314" width="327" height="314">
	<title>tooth_45</title>
	<style>
		tspan { white-space:pre }
		.shp0 { stroke: #000000;stroke-width: 10 } 
	</style>
	<g id="45">
		<path id="path3962" class="shp0" d="M235.51 27.51C320.14 69.57 318.9 92.19 321.46 124.29C315.05 162.73 316.76 177.03 316.96 195.83C318.11 235.34 293.49 245.73 277.98 266.42C228.25 316.18 201.76 300.09 166.67 308.37C134.4 303.4 114.74 298.46 96.02 293.52C43.39 280.75 47.99 260.98 28.04 244.21C2.46 209.88 0.21 166.02 13.72 115.72C24.8 85.8 47.28 63.42 70.81 41.73L128.65 12.57C173.05 -5.78 223.91 19.42 235.51 27.51L235.51 27.51Z" />
		<path id="path3964" class="shp0" d="M156.2 24.72C173.9 43.61 188.84 45.67 204.41 51.57C208.26 82.7 216.48 109.49 249.94 111.17C247.39 130.73 240.78 151.89 248.93 167.2C249.29 176.37 248.43 185.93 241.96 197.35C227.62 199.59 226.37 218.27 220.32 230.92C210.43 253.08 196.17 259.82 177.16 249.77C159.74 243.84 141.77 241.39 127.25 216.88C108.55 187.57 87.59 159.38 95.62 116.8C102.26 103.6 107.96 89.76 107.8 72C115.45 31.17 137.77 28.42 156.2 24.72L156.2 24.72Z" />
		<path id="path3966" class="shp0" d="M145.75 65.21C181.09 53.73 203.21 78.97 215.4 131.77C215.71 163.25 216.07 194.78 196.23 212.75" />
		<path id="path3968" class="shp0" d="M234.25 179.23C232.69 152.15 224.44 140.01 213.68 133.49" />
		<path id="path3970" class="shp0" d="M184.58 49.79L187.11 73.94" />
	</g>
</svg>