<svg version="1.2" baseProfile="tiny-ps" xmlns="http://www.w3.org/2000/svg" viewBox="0 0 309 290" width="309" height="290">
	<title>tooth_22</title>
	<style>
		tspan { white-space:pre }
		.shp0 { stroke: #000000;stroke-linecap:round;stroke-width: 10 } 
	</style>
	<g id="top_right">
		<g id="22">
			<path id="path4356" class="shp0" d="M285.77 103.88C299.52 120.25 305.49 138.86 303.16 159.87C291.56 192.35 282.83 225.98 249.08 249.67C233.09 260.2 217.38 272.37 199.14 269.63L152.61 280.96C124.32 285.63 97.69 286.96 78.46 273.39C47.29 259.77 28.87 233.35 13.62 203.73C11.41 168.94 -0.04 169.97 9.87 88.22C12.54 78.83 11.14 73.22 32.17 46.79L63.13 15.67C71.52 2.21 88.04 3.27 107.94 10.38C165.03 29.85 137.7 4.29 271.08 91.85L285.77 103.88Z" />
			<path id="path4358" class="shp0" d="M34.85 82.12C54.1 76.63 24.77 59.61 96.02 66.45C113.13 65 136.84 76.66 160.73 88.69C188.49 103.32 213.45 111 245.34 135.88C280.1 189.89 251.45 212.39 233.54 240.23" />
			<path id="path4360" class="shp0" d="M84.08 114.75C77.98 146.66 72.29 179.39 54.96 188.97" />
			<path id="path4362" class="shp0" d="M124.94 247.41C122.42 220.24 162.03 208.74 194.63 194.64" />
		</g>
	</g>
</svg>