<svg version="1.2" baseProfile="tiny-ps" xmlns="http://www.w3.org/2000/svg" viewBox="0 0 446 463" width="446" height="463">
	<title>tooth_26</title>
	<style>
		tspan { white-space:pre }
		.shp0 { stroke: #000000;stroke-width: 10 } 
		.shp1 { stroke: #000000;stroke-linecap:round;stroke-width: 10 } 
	</style>
	<g id="top_right">
		<g id="26">
			<path id="path4306" class="shp0" d="M374.75 52.34C404.51 64.82 426.25 87.65 429.9 133.88C462.98 253.8 416.94 348.19 288.38 415.94C252.6 435.96 228.26 475.88 164.52 447.25C151.05 440.73 135.19 427.11 117.94 409.35C102.89 383.59 74.31 351.1 44.46 317.99C-3.42 272.46 -18.98 218.53 63.71 139.07C90.71 114.58 110 90.12 129.72 65.65C202.72 16.03 275.73 -33.61 374.75 52.34L374.75 52.34Z" />
			<path id="path4308" class="shp0" d="M359.53 156.6C375.24 213.03 428.52 291.29 333.23 332.73C334.28 375.43 326.76 406.2 279.94 418.78C248.84 442.61 219.26 474.89 177.17 437.36C127.71 411.33 129.03 382.8 123.43 352.99C100.89 339.11 84.3 305.53 87.95 250.27C95.4 192.4 77.76 146.31 136.75 64.23C215.96 7.81 255.59 35.51 302.91 46.89C330.14 70.85 380.33 60.18 359.53 156.6L359.53 156.6Z" />
			<path id="path4310" class="shp1" d="M174.79 66.94C184.48 78.32 197.41 79.88 200.26 111.95C195.88 144.82 213.94 177.64 231.5 210.46C249.67 228.14 243.77 276.06 248.67 310.41C230.87 327.37 213.03 327.57 195.19 326.05L161.46 355.71" />
			<path id="path4312" class="shp1" d="M341.26 169.33C329.18 182.41 320.17 197.53 286.4 196.23C267.14 193.77 247.89 192.52 228.67 204.83" />
			<path id="path4314" class="shp1" d="M128.61 181.15C165.51 187.49 220.05 184.96 230.08 204.83" />
			<path id="path4316" class="shp1" d="M320.54 325.72C282.96 342.72 267.04 324.87 247.27 313.23" />
			<path id="path4318" class="shp1" d="M289.69 377.91L272.65 325.84" />
		</g>
	</g>
</svg>