<svg version="1.2" baseProfile="tiny-ps" xmlns="http://www.w3.org/2000/svg" viewBox="0 0 454 438" width="454" height="438">
	<title>tooth_27</title>
	<style>
		tspan { white-space:pre }
		.shp0 { stroke: #000000;stroke-linecap:round;stroke-width: 10 } 
		.shp1 { stroke: #000000;stroke-width: 10 } 
	</style>
	<g id="top_right">
		<g id="27">
			<path id="path4290" class="shp0" d="M375.33 386.76C309.73 438.12 263.93 424.54 212.06 430.85C81.53 446.82 35.47 365.73 8.8 262.36C-2.74 201 18.95 184.3 42.31 149.6C66.06 114.33 102.17 78.98 147.71 60.59C292.91 -31.09 386.11 -5.48 437.99 113.35C451.59 159.61 454.23 199.82 434.07 227.45C449.65 347.53 400.72 344.73 375.33 386.76Z" />
			<path id="path4292" class="shp1" d="M374.51 74.08C384.87 86.72 395.21 89.42 405.55 95.13C416.52 123.45 444.74 128.66 403.08 227.53C423.59 294.33 418.55 358.09 286.65 406.71C230.24 424.65 198.01 401.44 166.79 354.91C135.58 308.38 69.2 269.62 95.97 201.57C103.33 162.98 125.9 149.56 143.67 128.21C230.5 49.88 319.88 -44 374.51 74.08L374.51 74.08Z" />
			<path id="path4294" class="shp0" d="M164.8 129.56C178.06 136.77 187.63 136.63 197.21 136.52C222.8 132.72 233.55 146.32 236.73 168.81C237.07 182.95 233.29 198.47 255.14 205.38C273.96 222.55 264.57 230.39 262.27 240.57C262.78 256.56 263.28 267.28 263.77 275.78C264.2 333.15 248.49 331.92 238.62 351.9C232.67 358.38 225.32 364.4 230.23 374.46L218.98 384.35" />
			<path id="path4296" class="shp0" d="M215.53 139.29C218.06 120.62 222.29 104.49 232.32 96.99C241.34 85.23 246.57 73.48 251.94 61.73" />
			<path id="path4298" class="shp0" d="M235.29 157.55C261.69 138.01 285.78 120.19 309.8 102.42C314.05 86.99 333.05 86.22 352 85.41" />
			<path id="path4300" class="shp0" d="M387.55 213.49L332.64 220.67C311.99 229.58 290.35 235.58 262.22 222.26" />
			<path id="path4302" class="shp0" d="M279.55 385.6L265.43 372.96C269.34 336.82 262.17 331.4 251.25 336.38" />
			<path id="path4304" class="shp0" d="M193.31 263.29C206.45 257.91 219.58 252.52 232.7 243.47L262.28 246.21" />
		</g>
	</g>
</svg>