<svg version="1.2" baseProfile="tiny-ps" xmlns="http://www.w3.org/2000/svg" viewBox="0 0 327 313" width="327" height="313">
	<title>tooth_35</title>
	<style>
		tspan { white-space:pre }
		.shp0 { stroke: #000000;stroke-width: 10 } 
	</style>
	<g id="35">
		<path id="path4416" class="shp0" d="M91.48 26.98C103.07 18.89 153.94 -6.31 198.34 12.05L256.17 41.21C279.7 62.89 302.19 85.27 313.26 115.19C326.77 165.5 324.52 209.36 298.95 243.68C278.99 260.45 283.59 280.22 230.97 293C212.25 297.93 192.59 302.87 160.32 307.84C125.23 299.57 98.74 315.65 49 265.89C33.49 245.2 8.88 234.82 10.02 195.3C10.22 176.5 11.93 162.2 5.53 123.76C8.08 91.66 6.85 69.04 91.48 26.98L91.48 26.98Z" />
		<path id="path4418" class="shp0" d="M170.78 24.19C189.21 27.89 211.54 30.64 219.18 71.48C219.03 89.24 224.73 103.07 231.37 116.27C239.39 158.85 218.44 187.04 199.74 216.35C185.22 240.86 167.25 243.31 149.82 249.24C130.82 259.29 116.56 252.55 106.67 230.39C100.62 217.74 99.37 199.06 85.03 196.83C78.55 185.4 77.7 175.84 78.05 166.67C86.21 151.37 79.6 130.2 77.04 110.64C110.5 108.96 118.73 82.17 122.58 51.04C138.15 45.14 153.09 43.08 170.78 24.19L170.78 24.19Z" />
		<path id="path4420" class="shp0" d="M130.76 212.22C110.91 194.25 111.27 162.73 111.58 131.24C123.78 78.44 145.89 53.2 181.24 64.68" />
		<path id="path4422" class="shp0" d="M92.74 178.7C94.3 151.62 102.55 139.48 113.31 132.96" />
		<path id="path4424" class="shp0" d="M142.4 49.26L139.88 73.41" />
	</g>
</svg>