<svg version="1.2" baseProfile="tiny-ps" xmlns="http://www.w3.org/2000/svg" viewBox="0 0 241 282" width="241" height="282">
	<title>tooth_42</title>
	<style>
		tspan { white-space:pre }
		.shp0 { stroke: #000000;stroke-width: 10 } 
	</style>
	<g id="42">
		<path id="path3897" class="shp0" d="M187.8 43.57C193.76 74.91 199.76 85.07 205.74 105.68C224.74 148.25 225.16 153.43 234.01 175.59C242.88 224.85 209.84 235 188.97 256.5C158.35 274.96 124.34 282.29 84.62 270.88C53.65 262.97 28.39 245.13 15.83 205.19C-5.06 131.35 12.86 132.61 19.52 112.09L65.33 68.25L104.25 19.21C131.42 -2.71 171.42 -2.18 187.8 43.57L187.8 43.57Z" />
		<path id="path3895" class="shp0" d="M193.35 228.93C174.59 228.75 170.31 242.02 124.42 216.68C113.72 207.17 78.94 197.59 51.22 188.04C18.62 181.68 21.06 152.93 19.48 126.75" />
		<path id="path3891" class="shp0" d="M98.09 64.88C76.02 97.01 14.81 129.03 84.05 161.4" />
		<path id="path3893" class="shp0" d="M195.22 172.9C185.11 193.82 175.02 208.53 165.05 172.82L149.73 98.64" />
	</g>
</svg>