<svg version="1.2" baseProfile="tiny-ps" xmlns="http://www.w3.org/2000/svg" viewBox="0 0 411 468" width="411" height="468">
	<title>tooth_37</title>
	<style>
		tspan { white-space:pre }
		.shp0 { stroke: #000000;stroke-width: 10 } 
	</style>
	<g id="37">
		<path id="path4382" class="shp0" d="M258.4 19.9C290.54 34.84 323.35 44.33 353.37 76.55C378.24 96.13 396.74 131.39 401.12 201.42C403.2 250.67 415.14 298.66 382.54 352.34C354.56 375.93 371.7 383.95 295.66 424.12C256.49 440.53 228.37 476.71 168.16 455.48C139.03 447.23 129.19 450.49 79.3 429.85C58.16 425.04 40.65 412.92 30.91 385.15C20.41 367.19 11.65 342.25 5.7 305.91C7.74 274.51 12.47 261.6 16.75 245.53C23.58 203.32 21.02 185.73 16.56 173.12C16.1 151.86 20.33 130.58 33.63 109.28C40.62 86.26 45.21 64.5 86.03 39.32C123.2 11.38 147.33 -9.64 258.4 19.9L258.4 19.9Z" />
		<path id="path4384" class="shp0" d="M187.91 426.12C173.38 419.19 173.22 407.09 129.25 410.76C118.61 409.38 107.98 409.18 97.31 394.46L74 379.87L54.12 362.68C38.62 345.82 35.02 327.61 40.19 308.4C42.91 287.1 47.27 261.4 43.5 257.53C41.46 244.32 45.53 222.9 50.25 200.62C48.09 171.86 27.69 175.87 54.28 95.44C56.02 78.29 65.08 69.52 81.8 69.5C95.41 66.82 99.07 60.55 116.23 47C128.42 39.78 134.73 32.58 161.86 25.33C182.56 27.95 203.23 21.07 223.96 38.09L260.26 70.76C289.52 95.01 292.65 108.46 294.87 121.53C303 141.05 299.83 160.6 296.75 180.15C296.06 196.81 290.32 210.6 273.57 218.14C281.62 227.72 290.65 232.33 294.38 263.77C302.97 318.38 289.76 332.38 280.83 354.33C263.36 379.7 245.88 398.81 228.41 419.98" />
		<path id="path4386" class="shp0" d="M139.6 82.28C155.32 93 167.64 109.69 174.22 136.5C171.39 157.47 166.54 174.4 161.43 190.85C157.13 213.52 145.28 212.25 151.29 267.6C162.06 278.05 164.72 285.82 161.7 291.71C142.22 333.2 149.01 369.84 180.09 402" />
		<path id="path4388" class="shp0" d="M110.13 352.19C119.7 331.4 130.6 311.27 158.27 299.47C162.09 287.71 175.07 283.03 199.62 287.3" />
		<path id="path4390" class="shp0" d="M239.08 213.92C199.94 210.66 165.55 210.16 153.76 222.76" />
		<path id="path4392" class="shp0" d="M55.52 237.67C86.14 229.17 107.29 212.42 154.61 218.45" />
		<path id="path4394" class="shp0" d="M66.63 199.71L108.93 222.02" />
		<path id="path4396" class="shp0" d="M235.38 119.1C207.3 124.63 187.66 130.14 173.36 135.64" />
		<path id="path4398" class="shp0" d="M198.18 68.33C187.04 90.2 173.09 112.08 175.08 133.91" />
	</g>
</svg>