<svg version="1.2" baseProfile="tiny-ps" xmlns="http://www.w3.org/2000/svg" viewBox="0 0 309 290" width="309" height="290">
	<title>tooth_12</title>
	<style>
		tspan { white-space:pre }
		.shp0 { stroke: #000000;stroke-linecap:round;stroke-width: 10 } 
	</style>
	<g id="top_left">
		<g id="12">
			<path id="path3900" class="shp0" d="M37.9 92.38C171.29 4.82 143.96 30.38 201.05 10.91C220.95 3.8 237.46 2.73 245.86 16.2L276.81 47.31C297.85 73.75 296.45 79.36 299.12 88.75C309.03 170.5 297.58 169.47 295.37 204.26C280.12 233.87 261.7 260.3 230.53 273.92C211.3 287.49 184.66 286.15 156.37 281.48L109.85 270.15C91.61 272.9 75.89 260.73 59.9 250.2C26.15 226.51 17.43 192.88 5.83 160.4C3.49 139.39 9.47 120.78 23.22 104.41L37.9 92.38Z" />
			<path id="path3902" class="shp0" d="M75.44 240.75C57.54 212.91 28.88 190.42 63.65 136.41C95.54 111.53 120.5 103.85 148.26 89.22C172.15 77.19 195.86 65.52 212.97 66.98C284.22 60.14 254.88 77.16 274.14 82.65" />
			<path id="path3904" class="shp0" d="M224.91 115.28C231.01 147.19 236.69 179.92 254.03 189.5" />
			<path id="path3906" class="shp0" d="M184.05 247.93C186.57 220.76 146.96 209.27 114.36 195.17" />
		</g>
	</g>
</svg>