<svg version="1.2" baseProfile="tiny-ps" xmlns="http://www.w3.org/2000/svg" viewBox="0 0 248 244" width="248" height="244">
	<title>tooth_31</title>
	<style>
		tspan { white-space:pre }
		.shp0 { stroke: #000000;stroke-width: 10 } 
	</style>
	<g id="31">
		<path id="path4454" class="shp0" d="M183.36 41.27C196.35 69.81 205.56 101.39 229.26 121.32C239.9 131.97 249.05 145.61 237.23 201.47C224.96 224.74 203.96 238.36 170.95 238.71C144.33 233.71 121.41 226.57 79.55 230.33C59.39 225.46 41.02 231.99 16.54 199.46C8.45 184.1 -4.15 174.31 16.34 123.6L79.05 39.82C96.06 27.14 97.92 7.63 137.58 5.18C168.59 6.12 174.4 24.8 183.36 41.27Z" />
		<path id="path4456" class="shp0" d="M226.28 190.75C209.17 193.65 192.96 199.2 173.7 193.47L142.67 196.14C120.84 199.37 102.06 196.44 82.33 195.43C52.41 193.87 21.59 192.73 29.68 173.16" />
	</g>
</svg>