<svg version="1.2" baseProfile="tiny-ps" xmlns="http://www.w3.org/2000/svg" viewBox="0 0 368 329" width="368" height="329">
	<title>tooth_11</title>
	<style>
		tspan { white-space:pre }
		.shp0 { stroke: #000000;stroke-linecap:round;stroke-width: 10 } 
	</style>
	<g id="top_left">
		<g id="11">
			<path id="path3908" class="shp0" d="M13.39 155.75C-0.12 133.15 7.92 114.19 6.65 93.66C7.28 39.95 39.55 44.12 63.71 33.47L130.13 18.99C200.91 -2.23 224.96 8.39 261.18 10.71L323.21 27.25C346.08 39.02 370.52 66.46 359.23 96.31L343.61 137.65L257.92 267.6C223.07 317.15 181.08 318.24 139.67 323.32C88.97 308.99 69.92 281.72 57.96 251.56C49.12 223.62 14.04 161.76 13.39 155.75L13.39 155.75Z" />
			<path id="path3910" class="shp0" d="M76.97 235.23L61.79 108.46C70.02 108.48 52.52 82.87 83.44 71.45C196.33 27.49 261.58 59.71 279.99 69.38C298.41 79.05 314.39 105.48 310.86 133.25C307.33 161.03 299.6 167.7 294.36 181.49" />
		</g>
	</g>
</svg>