<svg version="1.2" baseProfile="tiny-ps" xmlns="http://www.w3.org/2000/svg" viewBox="0 0 364 398" width="364" height="398">
	<title>tooth_38</title>
	<style>
		tspan { white-space:pre }
		.shp0 { stroke: #000000;stroke-width: 10 } 
	</style>
	<g id="38">
		<path id="path4368" class="shp0" d="M338.79 282.52C318.28 322.22 301.46 331.7 282.95 355.08C236.26 399.17 237.79 388.71 207.18 389.76C176.57 390.8 81.96 380.43 70.06 369.43C26.67 352.34 27.94 331.94 13.87 312.68C0.82 271.03 12.31 256.85 16.25 234.22C28.71 175.52 22.05 164.95 22.03 137.66C39.26 66.03 74.4 64.92 92.48 46.09C101.19 41.36 111.06 35.18 124.32 23.59C169.81 -10.37 205.67 17.68 245.01 23.28C310.01 52.02 338.78 100.51 348.82 159.21C368.08 241.49 344.14 245.07 338.79 282.52L338.79 282.52Z" />
		<path id="path4370" class="shp0" d="M121.81 52.91C156.8 0.75 195.86 23.94 235.63 60.37C258.23 87.52 265.22 116.13 262.57 145.65C261.6 163.37 253.89 175.35 236.8 179.34C248.08 185.64 252.59 197.39 252.4 212.92L237.12 302.61C222.55 339.57 210.98 339.38 198.46 350.99C191.77 354.37 185 357.67 176.06 358.81C163.69 354.63 151.33 352.08 138.88 316.66C149.41 313.29 105.69 296.47 137.88 263.22C148.25 251.88 113.19 215.12 133.37 184.78C143.69 151.39 153.52 122.55 161.62 109.7C139.82 106.16 146.33 86.34 139.11 74.42" />
		<path id="path4372" class="shp0" d="M187.46 102.74L161.62 109.7" />
		<path id="path4374" class="shp0" d="M85.93 178.01C99.63 184.17 111.48 194.67 131.64 185.64" />
		<path id="path4376" class="shp0" d="M169.84 288.13C153.74 285.65 141.68 277.47 137.01 258.91" />
		<path id="path4378" class="shp0" d="M199.73 178.57C178.34 174.44 154.79 161.77 137.65 174.42" />
		<path id="path4380" class="shp0" d="M132.07 347.71C118.45 347.29 105.57 348.44 89.81 343.51C67.29 318.36 59.22 318.32 44.89 307.42C42.2 306.61 13.81 277.05 34.35 232.45C45.69 209.63 48.44 201.75 43.71 185.01C54.84 146 48.81 137.21 51.28 113.44" />
	</g>
</svg>