<svg version="1.2" baseProfile="tiny-ps" xmlns="http://www.w3.org/2000/svg" viewBox="0 0 299 329" width="299" height="329">
	<title>tooth_23</title>
	<style>
		tspan { white-space:pre }
		.shp0 { stroke: #000000;stroke-linecap:round;stroke-width: 10 } 
	</style>
	<g id="top_right">
		<g id="23">
			<path id="path4348" class="shp0" d="M206.26 286.58C187.56 295.46 202.25 291.13 145.12 315.19C114.44 317.6 101.98 344.46 28.68 289.64C4.58 267.71 2.12 227.38 7.7 180.21C18.54 137.49 13.62 102.7 58.2 43.01C70.94 27.33 90.62 3.37 143.45 5.71C160.93 7.79 178.88 8.92 198.63 6.43C220.76 10.6 242.88 7.16 265.17 69.19C290.66 109.02 298.03 150.19 291.35 192.4C285.61 235.57 260.3 268.55 206.26 286.58L206.26 286.58Z" />
			<path id="path4350" class="shp0" d="M95.23 28.25C142.93 35.92 177.78 56.49 204.87 84.86C232.24 111.51 237.15 166.9 239.72 225.29" />
			<path id="path4352" class="shp0" d="M72.96 80.04C40.63 205.79 26.62 235.47 111.09 157.52" />
			<path id="path4354" class="shp0" d="M148.27 201.39C77.1 287.52 124.31 274.78 200.95 237.46" />
		</g>
	</g>
</svg>