<svg version="1.2" baseProfile="tiny-ps" xmlns="http://www.w3.org/2000/svg" viewBox="0 0 248 245" width="248" height="245">
	<title>tooth_41</title>
	<style>
		tspan { white-space:pre }
		.shp0 { stroke: #000000;stroke-width: 10 } 
	</style>
	<g id="41">
		<path id="path3899" class="shp0" d="M110.41 5.71C150.06 8.16 151.92 27.67 168.94 40.34L231.65 124.13C252.13 174.84 239.54 184.63 231.45 199.99C206.97 232.52 188.59 225.99 168.44 230.86C126.58 227.1 103.66 234.24 77.04 239.24C44.03 238.89 23.02 225.27 10.76 202C-1.07 146.14 8.09 132.5 18.72 121.85C42.43 101.92 51.63 70.34 64.62 41.79C73.58 25.33 79.4 6.65 110.41 5.71Z" />
		<path id="path3901" class="shp0" d="M220.3 176.69C228.4 196.26 197.58 197.4 167.66 198.96C147.93 199.96 129.15 202.9 107.31 199.67L76.29 197C57.02 202.73 40.82 197.17 23.71 194.27" />
	</g>
</svg>