<svg version="1.2" baseProfile="tiny-ps" xmlns="http://www.w3.org/2000/svg" viewBox="0 0 369 296" width="369" height="296">
	<title>tooth_24</title>
	<style>
		tspan { white-space:pre }
		.shp0 { stroke: #000000;stroke-linecap:round;stroke-width: 10 } 
	</style>
	<g id="top_right">
		<g id="24">
			<path id="path4332" class="shp0" d="M275.79 18.44C357.38 46.86 362.74 86.06 363.14 125.97C367.29 301.52 218.27 298.54 189.41 285.05C144.01 290.67 112.48 285.45 87.66 274.97C41.33 271.42 19.01 243.72 11.61 201.03C4.83 178.12 2.51 152.95 13.98 120.85C22.37 102.92 16.67 85.74 68.15 65.54C122.44 59.55 139.62 45.79 162.03 30.81C194.25 -4.16 234.34 3.47 275.79 18.44Z" />
			<path id="path4334" class="shp0" d="M300.56 262.34C286.34 235.17 298.48 224.56 245.16 172.83C227.96 165.61 221.86 150.21 238.98 117.68C247.4 96.65 249.9 74.45 212.92 44.47C191.57 35.9 197.83 27.27 198.2 18.65" />
			<path id="path4336" class="shp0" d="M264.29 235.71C214.45 228.65 174.32 208.94 163.2 151.5C157.32 118.23 176.58 99.25 202.68 84.15" />
			<path id="path4338" class="shp0" d="M83.76 100.84C148.89 107.37 169.84 124.09 161.46 144.6C161.64 198.73 144.47 185.88 132.3 203.3" />
			<path id="path4340" class="shp0" d="M191.88 239.35C182.64 227.31 185.73 215.23 190.06 203.15" />
			<path id="path4342" class="shp0" d="M138.03 85.18C160.77 106.09 163.06 116.85 163.14 126.5" />
			<path id="path4344" class="shp0" d="M183.35 274.72C157.78 272.77 129.24 270.07 105.72 256.82C67.47 237.12 56.83 206.59 59.8 170.73C62.94 145.01 47.05 115.83 63.02 80.21" />
		</g>
	</g>
</svg>